PathFileType	4	(X/Y/Z)	/Users/itak/Documents/Research/Walk-IL/dataset/trc/00192_00008.trc
DataRate	CameraRate	NumFrames	NumMarkers	Units	OrigDataRate	OrigDataStartFrame	OrigNumFrames
100.000000	100.000000	4	53	mm	100.000000	297	794
Frame#	Time	RPSI			LPSI			L3			STRN			T10			C7			CLAV			RBAK			LBAK			LSHO			LUPA			LAEL			LAOL			LWTS			LWPS			LFRA			LIFD			LHPS			LHTS			RSHO			RUPA			RAEL			RAOL			RWTS			RWPS			RFRA			RIFD			RHTS			RHPS			RBHD			LFHD			RFHD			LBHD			LHIP			RHIP			RASI			LASI			LKNE			LTHI			LANK			LTIP			LTOE			LMT1			LMT5			LHEE			RKNE			RTHI			RANK			RTIP			RTOE			RMT1			RMT5			RHEE			
		X1	Y1	Z1	X2	Y2	Z2	X3	Y3	Z3	X4	Y4	Z4	X5	Y5	Z5	X6	Y6	Z6	X7	Y7	Z7	X8	Y8	Z8	X9	Y9	Z9	X10	Y10	Z10	X11	Y11	Z11	X12	Y12	Z12	X13	Y13	Z13	X14	Y14	Z14	X15	Y15	Z15	X16	Y16	Z16	X17	Y17	Z17	X18	Y18	Z18	X19	Y19	Z19	X20	Y20	Z20	X21	Y21	Z21	X22	Y22	Z22	X23	Y23	Z23	X24	Y24	Z24	X25	Y25	Z25	X26	Y26	Z26	X27	Y27	Z27	X28	Y28	Z28	X29	Y29	Z29	X30	Y30	Z30	X31	Y31	Z31	X32	Y32	Z32	X33	Y33	Z33	X34	Y34	Z34	X35	Y35	Z35	X36	Y36	Z36	X37	Y37	Z37	X38	Y38	Z38	X39	Y39	Z39	X40	Y40	Z40	X41	Y41	Z41	X42	Y42	Z42	X43	Y43	Z43	X44	Y44	Z44	X45	Y45	Z45	X46	Y46	Z46	X47	Y47	Z47	X48	Y48	Z48	X49	Y49	Z49	X50	Y50	Z50	X51	Y51	Z51	X52	Y52	Z52	X53	Y53	Z53	

298	2.97	-637.6817016601562	1044.413330078125	-342.0528564453125	-747.5843505859375	1052.54541015625	-394.6389770507812	-687.4707641601562	1084.197265625	-364.6069030761719	-573.624755859375	1298.218139648438	-610.01220703125	-684.631103515625	1248.409545898438	-328.7674865722656	-657.6044311523438	1516.224243164062	-397.8214721679688	-587.2940063476562	1413.141723632812	-588.0765380859375	-585.4755859375	1338.257690429688	-294.6753234863281	-751.7379760742188	1497.103759765625	-422.8728942871094	-800.86328125	1488.448120117188	-523.530029296875	-886.4833374023438	1359.768920898438	-509.0929565429688	-906.7050170898438	1142.306762695312	-519.6719970703125	-843.6094360351562	1124.231567382812	-459.4420776367188	-858.3139038085938	922.1893310546875	-645.149658203125	-908.8145141601562	891.5680541992188	-573.1198120117188	-917.5941162109375	1032.164428710938	-543.6155395507812	-824.8821411132812	751.5892944335938	-669.8268432617188	-899.3720092773438	824.5545654296875	-601.8818359375	-875.2575073242188	845.6110229492188	-667.5040893554688	-467.5162658691406	1488.491577148438	-393.4171752929688	-411.7368469238281	1420.106689453125	-350.5209045410156	-374.9721374511719	1125.45458984375	-326.1845397949219	-465.6072387695312	1125.748168945312	-358.4187622070312	-358.576171875	934.348876953125	-513.4085693359375	-342.460693359375	894.2282104492188	-434.7739562988281	-353.37158203125	1053.8212890625	-358.3851623535156	-386.9749755859375	761.702880859375	-585.6364135742188	-346.3991088867188	849.7409057617188	-558.6751708984375	-340.7540283203125	820.8181762695312	-483.3255004882812	-571.2646484375	1650.53759765625	-403.1478881835938	-587.3502807617188	1742.037475585938	-601.2933349609375	-479.1131286621094	1718.001586914062	-534.5244750976562	-688.803955078125	1682.225341796875	-464.72412109375	-819.9530029296875	1006.831298828125	-531.5459594726562	-459.6727294921875	994.4315185546875	-433.5050964355469	-474.85693359375	1026.676635742188	-525.8646850585938	-709.1646728515625	1044.504028320312	-628.48974609375	-725.157470703125	535.4081420898438	-756.9976196289062	-759.9186401367188	672.703857421875	-708.4964599609375	-848.863525390625	96.82785034179688	-577.67236328125	-794.4630737304688	322.6419372558594	-682.3207397460938	-754.173095703125	59.30783462524414	-764.5436401367188	-725.9706420898438	66.23807525634766	-704.8655395507812	-848.67919921875	62.27310943603516	-684.3899536132812	-804.2584838867188	112.5219955444336	-508.4913940429688	-561.5520629882812	497.6794128417969	-496.6874389648438	-465.3079223632812	758.6046752929688	-495.5540771484375	-696.2107543945312	33.59482955932617	-453.4761962890625	-594.4243774414062	382.2720336914062	-522.364990234375	-602.703125	51.61413192749023	-653.7852172851562	-667.1033935546875	42.06352615356445	-634.8678588867188	-604.552734375	40.25628280639648	-527.2721557617188	-779.7576293945312	31.23514366149902	-449.7779541015625	
299	2.98	-636.960205078125	1043.755981445312	-348.9308776855469	-745.4521484375	1052.261596679688	-403.8279113769531	-685.9098510742188	1083.770141601562	-372.3211975097656	-568.1080322265625	1297.327392578125	-616.3555908203125	-682.6168212890625	1248.055053710938	-336.7270812988281	-654.550048828125	1515.559448242188	-405.7197875976562	-582.3091430664062	1412.303344726562	-595.0895385742188	-583.6156005859375	1338.158081054688	-301.4949340820312	-748.590087890625	1496.498168945312	-431.9979553222656	-796.4508056640625	1487.48193359375	-533.0337524414062	-882.4200439453125	1359.078735351562	-519.4271240234375	-903.7039794921875	1141.943969726562	-530.331298828125	-841.6417236328125	1123.459350585938	-469.2062377929688	-854.2999877929688	922.0886840820312	-655.7316284179688	-906.3043823242188	891.410400390625	-584.8713989257812	-914.7941284179688	1031.920532226562	-554.817626953125	-821.2969970703125	751.4065551757812	-680.9485473632812	-896.6642456054688	824.4949340820312	-613.8245849609375	-871.1605224609375	845.8095092773438	-678.8034057617188	-464.58251953125	1488.272583007812	-399.4220886230469	-408.8894348144531	1419.875122070312	-356.191650390625	-371.5439758300781	1124.911499023438	-333.6361999511719	-462.0160217285156	1125.195068359375	-366.0865173339844	-355.6105041503906	934.7581787109375	-521.8688354492188	-338.8800659179688	894.3470458984375	-443.5133056640625	-349.9683837890625	1053.49169921875	-366.2426147460938	-384.1527709960938	762.3270263671875	-594.68408203125	-343.5229187011719	850.3983154296875	-567.5927734375	-337.2827453613281	821.1765747070312	-492.4193420410156	-568.3921508789062	1649.962768554688	-410.6307373046875	-583.1319580078125	1741.301025390625	-608.9583740234375	-475.4046936035156	1717.611328125	-541.3170166015625	-685.5372314453125	1681.2734375	-473.1978759765625	-814.8428955078125	1006.316345214844	-543.7051391601562	-458.334228515625	993.1133422851562	-436.2426452636719	-470.4146728515625	1026.05078125	-529.6114501953125	-702.701416015625	1043.94677734375	-636.7813110351562	-713.6026000976562	536.2684936523438	-767.5302124023438	-750.2665405273438	673.0484619140625	-718.702392578125	-833.89501953125	88.08425140380859	-610.4320068359375	-781.4871215820312	319.4974060058594	-703.343994140625	-732.3180541992188	60.8487434387207	-795.4986572265625	-706.192626953125	65.75516510009766	-734.5567626953125	-829.3615112304688	58.1973762512207	-718.47412109375	-792.0177612304688	101.7620544433594	-539.1365356445312	-559.5966796875	497.1136169433594	-498.8428955078125	-462.2001953125	757.59033203125	-497.7371826171875	-696.2303466796875	33.70027160644531	-453.5966491699219	-592.8880615234375	381.5820007324219	-524.2627563476562	-602.1487426757812	49.86311340332031	-654.4124755859375	-666.7314453125	41.56695938110352	-635.2019653320312	-604.2774658203125	39.97825241088867	-527.3328247070312	-779.8493041992188	31.37420082092285	-450.0209655761719	
300	2.99	-636.00830078125	1043.110473632812	-355.89013671875	-743.12744140625	1051.843872070312	-413.0697937011719	-684.1559448242188	1083.252075195312	-380.1296997070312	-562.5006103515625	1296.319580078125	-622.6699829101562	-680.5946655273438	1247.572998046875	-344.7557678222656	-651.4647827148438	1514.768432617188	-413.640625	-577.2214965820312	1411.363037109375	-602.053466796875	-581.8106689453125	1337.930419921875	-308.332763671875	-745.4451293945312	1495.793334960938	-441.3206176757812	-791.9337158203125	1486.441528320312	-542.6483764648438	-878.2671508789062	1358.328002929688	-530.0134887695312	-900.6034545898438	1141.539184570312	-541.2804565429688	-839.5890502929688	1122.645874023438	-479.2315979003906	-850.337890625	921.7393188476562	-666.2839965820312	-903.8275146484375	891.1720581054688	-596.54736328125	-911.931640625	1031.632080078125	-566.1690063476562	-818.0143432617188	750.9271240234375	-691.836669921875	-894.10009765625	824.30517578125	-625.6102905273438	-867.2611083984375	845.7582397460938	-689.9693603515625	-461.6483459472656	1487.923950195312	-405.3711853027344	-406.0833129882812	1419.5009765625	-361.8029479980469	-368.1226196289062	1124.260009765625	-341.028076171875	-458.4017333984375	1124.528442382812	-373.6949157714844	-352.556640625	934.9285888671875	-530.130859375	-335.2260131835938	894.3043823242188	-452.0245056152344	-346.5436096191406	1053.051391601562	-373.9913330078125	-381.2224426269531	762.6177368164062	-603.3488159179688	-340.5688781738281	850.7522583007812	-576.2266845703125	-333.7543029785156	821.3173828125	-501.2084655761719	-565.4125366210938	1649.281982421875	-418.1288146972656	-578.79736328125	1740.40966796875	-616.649169921875	-471.6034545898438	1717.05419921875	-548.1483764648438	-682.1639404296875	1680.24072265625	-481.6779174804688	-810.0709838867188	1005.893737792969	-555.1154174804688	-456.6446838378906	991.8767700195312	-439.1583251953125	-465.8629150390625	1025.370361328125	-533.3993530273438	-696.1384887695312	1043.17333984375	-645.0438232421875	-702.426025390625	536.8204956054688	-777.5391235351562	-740.9475708007812	673.06005859375	-728.447265625	-817.5824584960938	79.925537109375	-642.6416625976562	-768.1619262695312	316.534912109375	-723.8128051757812	-709.369384765625	62.9449577331543	-825.1668701171875	-685.3804931640625	65.93495941162109	-763.1469116210938	-808.750244140625	54.6489143371582	-751.601318359375	-778.5158081054688	91.73357391357422	-569.4479370117188	-557.54052734375	496.4844665527344	-501.057861328125	-458.8996276855469	756.6111450195312	-499.9405212402344	-696.2470703125	33.80214691162109	-453.7167663574219	-591.269775390625	380.8138122558594	-526.240478515625	-601.5826416015625	48.04423522949219	-655.0433349609375	-666.4302978515625	41.03427505493164	-635.5824584960938	-603.97119140625	39.71062850952148	-527.3607177734375	-779.8953247070312	31.54179382324219	-450.2322998046875	
301	3	-634.765380859375	1042.47412109375	-362.937255859375	-740.578369140625	1051.2890625	-422.3547668457031	-682.21142578125	1082.635131835938	-388.0323486328125	-556.8024291992188	1295.192993164062	-628.9776000976562	-678.54638671875	1246.965942382812	-352.8530578613281	-648.351806640625	1513.859985351562	-421.6109008789062	-572.0320434570312	1410.311889648438	-608.9690551757812	-580.0640258789062	1337.5732421875	-315.1997375488281	-742.2694702148438	1494.959106445312	-450.8170776367188	-787.317138671875	1485.315795898438	-552.3762817382812	-874.0198364257812	1357.49560546875	-540.82470703125	-897.3937377929688	1141.0634765625	-552.474609375	-837.4142456054688	1121.7685546875	-489.5096130371094	-846.4517211914062	921.129150390625	-676.821044921875	-901.3701171875	890.8305053710938	-608.1264038085938	-908.9922485351562	1031.270263671875	-577.6344604492188	-815.0183715820312	750.142822265625	-702.4664916992188	-891.6561889648438	823.9627075195312	-637.218017578125	-863.5762329101562	845.4292602539062	-700.9995727539062	-458.7194213867188	1487.440795898438	-411.2688293457031	-403.3242492675781	1418.973022460938	-367.3575439453125	-364.711181640625	1123.490600585938	-348.3467102050781	-454.7666931152344	1123.734985351562	-381.2292785644531	-349.3999328613281	934.8663330078125	-538.1926879882812	-331.497314453125	894.09521484375	-460.3092346191406	-343.0971374511719	1052.48974609375	-381.6221923828125	-378.1542663574219	762.5958862304688	-611.6624755859375	-337.5228576660156	850.8118896484375	-584.5878295898438	-330.1594543457031	821.237060546875	-509.703857421875	-562.3366088867188	1648.497802734375	-425.6480407714844	-574.3470458984375	1739.376342773438	-624.3694458007812	-467.7074584960938	1716.33544921875	-555.0148315429688	-678.6865234375	1679.136352539062	-490.1754150390625	-805.68798828125	1005.607849121094	-565.5173950195312	-454.5385437011719	990.7418212890625	-442.3177490234375	-461.1961669921875	1024.6162109375	-537.25341796875	-689.445556640625	1042.188354492188	-653.2727661132812	-691.6190185546875	537.0726318359375	-787.0870971679688	-731.948974609375	672.7435913085938	-737.8195190429688	-800.0707397460938	72.47969055175781	-674.1832275390625	-754.5098876953125	313.7834167480469	-743.707763671875	-685.5161743164062	65.64171600341797	-853.4627685546875	-663.6914672851562	66.79523468017578	-790.54833984375	-786.9940185546875	51.73122406005859	-783.6635131835938	-763.8346557617188	82.51883697509766	-599.2938842773438	-555.3858032226562	495.7817993164062	-503.3559265136719	-455.4786376953125	755.6351928710938	-502.2179260253906	-696.2603149414062	33.90364837646484	-453.8350524902344	-589.5624389648438	379.9642944335938	-528.3106689453125	-601.00244140625	46.24124145507812	-655.6492919921875	-666.1995849609375	40.49904632568359	-635.983154296875	-603.6509399414062	39.44936370849609	-527.3671264648438	-779.9010620117188	31.73213768005371	-450.4154968261719	
